{
    "asset" : {
        "generator" : "Khronos glTF Blender I/O v1.1.46",
        "version" : "2.0"
    },
    "scene" : 0,
    "scenes" : [
        {
            "name" : "Scene",
            "nodes" : [
                0
            ]
        }
    ],
    "nodes" : [
        {
            "mesh" : 0,
            "name" : "BaseBuilding"
        }
    ],
    "materials" : [
        {
            "doubleSided" : true,
            "emissiveFactor" : [
                0,
                0,
                0
            ],
            "name" : "BaseMaterial",
            "pbrMetallicRoughness" : {
                "baseColorFactor" : [
                    0.17886176705360413,
                    0.17886176705360413,
                    0.17886176705360413,
                    1
                ],
                "metallicFactor" : 0,
                "roughnessFactor" : 0.5
            }
        },
        {
            "doubleSided" : true,
            "name" : "Material.001",
            "pbrMetallicRoughness" : {}
        }
    ],
    "meshes" : [
        {
            "name" : "Cube",
            "primitives" : [
                {
                    "attributes" : {
                        "POSITION" : 0,
                        "NORMAL" : 1,
                        "TANGENT" : 2,
                        "TEXCOORD_0" : 3
                    },
                    "indices" : 4,
                    "material" : 0
                },
                {
                    "attributes" : {
                        "POSITION" : 5,
                        "NORMAL" : 6,
                        "TANGENT" : 7,
                        "TEXCOORD_0" : 8
                    },
                    "indices" : 9,
                    "material" : 1
                }
            ]
        }
    ],
    "accessors" : [
        {
            "bufferView" : 0,
            "componentType" : 5126,
            "count" : 516,
            "max" : [
                1.997307538986206,
                1.0087435245513916,
                1.395208716392517
            ],
            "min" : [
                -1.997307538986206,
                -0.9999999403953552,
                -1.114847183227539
            ],
            "type" : "VEC3"
        },
        {
            "bufferView" : 1,
            "componentType" : 5126,
            "count" : 516,
            "type" : "VEC3"
        },
        {
            "bufferView" : 2,
            "componentType" : 5126,
            "count" : 516,
            "type" : "VEC4"
        },
        {
            "bufferView" : 3,
            "componentType" : 5126,
            "count" : 516,
            "type" : "VEC2"
        },
        {
            "bufferView" : 4,
            "componentType" : 5123,
            "count" : 882,
            "type" : "SCALAR"
        },
        {
            "bufferView" : 5,
            "componentType" : 5126,
            "count" : 28,
            "max" : [
                1.9563838243484497,
                1.0087435245513916,
                1.3283993005752563
            ],
            "min" : [
                -1.997307538986206,
                -0.8225805759429932,
                0.8851526379585266
            ],
            "type" : "VEC3"
        },
        {
            "bufferView" : 6,
            "componentType" : 5126,
            "count" : 28,
            "type" : "VEC3"
        },
        {
            "bufferView" : 7,
            "componentType" : 5126,
            "count" : 28,
            "type" : "VEC4"
        },
        {
            "bufferView" : 8,
            "componentType" : 5126,
            "count" : 28,
            "type" : "VEC2"
        },
        {
            "bufferView" : 9,
            "componentType" : 5123,
            "count" : 42,
            "type" : "SCALAR"
        }
    ],
    "bufferViews" : [
        {
            "buffer" : 0,
            "byteLength" : 6192,
            "byteOffset" : 0
        },
        {
            "buffer" : 0,
            "byteLength" : 6192,
            "byteOffset" : 6192
        },
        {
            "buffer" : 0,
            "byteLength" : 8256,
            "byteOffset" : 12384
        },
        {
            "buffer" : 0,
            "byteLength" : 4128,
            "byteOffset" : 20640
        },
        {
            "buffer" : 0,
            "byteLength" : 1764,
            "byteOffset" : 24768
        },
        {
            "buffer" : 0,
            "byteLength" : 336,
            "byteOffset" : 26532
        },
        {
            "buffer" : 0,
            "byteLength" : 336,
            "byteOffset" : 26868
        },
        {
            "buffer" : 0,
            "byteLength" : 448,
            "byteOffset" : 27204
        },
        {
            "buffer" : 0,
            "byteLength" : 224,
            "byteOffset" : 27652
        },
        {
            "buffer" : 0,
            "byteLength" : 84,
            "byteOffset" : 27876
        }
    ],
    "buffers" : [
        {
            "byteLength" : 27960,
            "uri" : "baseBuilding.bin"
        }
    ]
}
