{
    "asset" : {
        "generator" : "Khronos glTF Blender I/O v1.2.75",
        "version" : "2.0"
    },
    "scene" : 0,
    "scenes" : [
        {
            "extras" : {
                "glTF2ExportSettings" : {
                    "export_animations" : 0,
                    "export_apply" : 1,
                    "export_colors" : 1,
                    "export_copyright" : "",
                    "export_extras" : 1,
                    "export_format" : "GLTF_SEPARATE",
                    "export_morph" : 0,
                    "export_skins" : 0
                }
            },
            "name" : "Scene",
            "nodes" : [
                0
            ]
        }
    ],
    "nodes" : [
        {
            "mesh" : 0,
            "name" : "BaseBuilding",
            "translation" : [
                0,
                1,
                0
            ]
        }
    ],
    "materials" : [
        {
            "doubleSided" : true,
            "emissiveFactor" : [
                0,
                0,
                0
            ],
            "name" : "BaseMaterial",
            "pbrMetallicRoughness" : {
                "baseColorFactor" : [
                    0.4479791224002838,
                    0.4479791224002838,
                    0.4479791224002838,
                    1
                ],
                "metallicFactor" : 0,
                "roughnessFactor" : 0.5
            }
        },
        {
            "doubleSided" : true,
            "emissiveFactor" : [
                0,
                0,
                0
            ],
            "name" : "GlassMaterial",
            "pbrMetallicRoughness" : {
                "baseColorFactor" : [
                    0.800000011920929,
                    0.800000011920929,
                    0.800000011920929,
                    1
                ],
                "metallicFactor" : 0.9756097793579102,
                "roughnessFactor" : 0
            }
        }
    ],
    "meshes" : [
        {
            "name" : "Cube",
            "primitives" : [
                {
                    "attributes" : {
                        "POSITION" : 0,
                        "NORMAL" : 1,
                        "TEXCOORD_0" : 2
                    },
                    "indices" : 3,
                    "material" : 0
                },
                {
                    "attributes" : {
                        "POSITION" : 4,
                        "NORMAL" : 5,
                        "TEXCOORD_0" : 6
                    },
                    "indices" : 7,
                    "material" : 1
                }
            ]
        }
    ],
    "accessors" : [
        {
            "bufferView" : 0,
            "componentType" : 5126,
            "count" : 524,
            "max" : [
                1.997307538986206,
                1.0087435245513916,
                1.395208716392517
            ],
            "min" : [
                -1.997307538986206,
                -0.9999999403953552,
                -1.114847183227539
            ],
            "type" : "VEC3"
        },
        {
            "bufferView" : 1,
            "componentType" : 5126,
            "count" : 524,
            "type" : "VEC3"
        },
        {
            "bufferView" : 2,
            "componentType" : 5126,
            "count" : 524,
            "type" : "VEC2"
        },
        {
            "bufferView" : 3,
            "componentType" : 5123,
            "count" : 882,
            "type" : "SCALAR"
        },
        {
            "bufferView" : 4,
            "componentType" : 5126,
            "count" : 28,
            "max" : [
                1.9563838243484497,
                1.0087435245513916,
                1.3283993005752563
            ],
            "min" : [
                -1.997307538986206,
                -0.8225805759429932,
                0.8851526379585266
            ],
            "type" : "VEC3"
        },
        {
            "bufferView" : 5,
            "componentType" : 5126,
            "count" : 28,
            "type" : "VEC3"
        },
        {
            "bufferView" : 6,
            "componentType" : 5126,
            "count" : 28,
            "type" : "VEC2"
        },
        {
            "bufferView" : 7,
            "componentType" : 5123,
            "count" : 42,
            "type" : "SCALAR"
        }
    ],
    "bufferViews" : [
        {
            "buffer" : 0,
            "byteLength" : 6288,
            "byteOffset" : 0
        },
        {
            "buffer" : 0,
            "byteLength" : 6288,
            "byteOffset" : 6288
        },
        {
            "buffer" : 0,
            "byteLength" : 4192,
            "byteOffset" : 12576
        },
        {
            "buffer" : 0,
            "byteLength" : 1764,
            "byteOffset" : 16768
        },
        {
            "buffer" : 0,
            "byteLength" : 336,
            "byteOffset" : 18532
        },
        {
            "buffer" : 0,
            "byteLength" : 336,
            "byteOffset" : 18868
        },
        {
            "buffer" : 0,
            "byteLength" : 224,
            "byteOffset" : 19204
        },
        {
            "buffer" : 0,
            "byteLength" : 84,
            "byteOffset" : 19428
        }
    ],
    "buffers" : [
        {
            "byteLength" : 19512,
            "uri" : "base.bin"
        }
    ]
}
