{
    "asset" : {
        "generator" : "Khronos glTF Blender I/O v1.1.46",
        "version" : "2.0"
    },
    "scene" : 0,
    "scenes" : [
        {
            "name" : "Scene",
            "nodes" : [
                0
            ]
        }
    ],
    "nodes" : [
        {
            "mesh" : 0,
            "name" : "BaseBuilding",
            "rotation" : [
                0.7071068286895752,
                0,
                0,
                0.7071067094802856
            ],
            "translation" : [
                0,
                1.0000001192092896,
                0
            ]
        }
    ],
    "materials" : [
        {
            "doubleSided" : true,
            "emissiveFactor" : [
                0,
                0,
                0
            ],
            "name" : "BaseMaterial.007",
            "pbrMetallicRoughness" : {
                "baseColorFactor" : [
                    0.4479791224002838,
                    0.4479791224002838,
                    0.4479791224002838,
                    1
                ],
                "metallicFactor" : 0,
                "roughnessFactor" : 0.5
            }
        },
        {
            "doubleSided" : true,
            "emissiveFactor" : [
                0,
                0,
                0
            ],
            "name" : "GlassMaterial.007",
            "pbrMetallicRoughness" : {
                "baseColorFactor" : [
                    0.800000011920929,
                    0.800000011920929,
                    0.800000011920929,
                    1
                ],
                "metallicFactor" : 0.9756097793579102,
                "roughnessFactor" : 0
            }
        }
    ],
    "meshes" : [
        {
            "name" : "Cube.047",
            "primitives" : [
                {
                    "attributes" : {
                        "POSITION" : 0,
                        "NORMAL" : 1,
                        "TEXCOORD_0" : 2
                    },
                    "indices" : 3,
                    "material" : 0
                },
                {
                    "attributes" : {
                        "POSITION" : 4,
                        "NORMAL" : 5,
                        "TEXCOORD_0" : 6
                    },
                    "indices" : 7,
                    "material" : 1
                }
            ]
        }
    ],
    "accessors" : [
        {
            "bufferView" : 0,
            "componentType" : 5126,
            "count" : 592,
            "max" : [
                1.997307538986206,
                1.395208716392517,
                0.9999999403953552
            ],
            "min" : [
                -1.997307538986206,
                -1.114847183227539,
                -1.0087435245513916
            ],
            "type" : "VEC3"
        },
        {
            "bufferView" : 1,
            "componentType" : 5126,
            "count" : 592,
            "type" : "VEC3"
        },
        {
            "bufferView" : 2,
            "componentType" : 5126,
            "count" : 592,
            "type" : "VEC2"
        },
        {
            "bufferView" : 3,
            "componentType" : 5123,
            "count" : 744,
            "type" : "SCALAR"
        },
        {
            "bufferView" : 4,
            "componentType" : 5126,
            "count" : 36,
            "max" : [
                1.9563838243484497,
                1.3283993005752563,
                0.8225805759429932
            ],
            "min" : [
                -1.997307538986206,
                0.8851526379585266,
                -1.0087435245513916
            ],
            "type" : "VEC3"
        },
        {
            "bufferView" : 5,
            "componentType" : 5126,
            "count" : 36,
            "type" : "VEC3"
        },
        {
            "bufferView" : 6,
            "componentType" : 5126,
            "count" : 36,
            "type" : "VEC2"
        },
        {
            "bufferView" : 7,
            "componentType" : 5123,
            "count" : 42,
            "type" : "SCALAR"
        }
    ],
    "bufferViews" : [
        {
            "buffer" : 0,
            "byteLength" : 7104,
            "byteOffset" : 0
        },
        {
            "buffer" : 0,
            "byteLength" : 7104,
            "byteOffset" : 7104
        },
        {
            "buffer" : 0,
            "byteLength" : 4736,
            "byteOffset" : 14208
        },
        {
            "buffer" : 0,
            "byteLength" : 1488,
            "byteOffset" : 18944
        },
        {
            "buffer" : 0,
            "byteLength" : 432,
            "byteOffset" : 20432
        },
        {
            "buffer" : 0,
            "byteLength" : 432,
            "byteOffset" : 20864
        },
        {
            "buffer" : 0,
            "byteLength" : 288,
            "byteOffset" : 21296
        },
        {
            "buffer" : 0,
            "byteLength" : 84,
            "byteOffset" : 21584
        }
    ],
    "buffers" : [
        {
            "byteLength" : 21668,
            "uri" : "base.bin"
        }
    ]
}
