{
    "asset" : {
        "generator" : "Khronos glTF Blender I/O v1.1.46",
        "version" : "2.0"
    },
    "scene" : 0,
    "scenes" : [
        {
            "name" : "Scene",
            "nodes" : [
                0
            ]
        }
    ],
    "nodes" : [
        {
            "mesh" : 0,
            "name" : "CornerBuilding",
            "rotation" : [
                0.7071068286895752,
                0,
                0,
                0.7071067094802856
            ],
            "translation" : [
                0,
                1.0000001192092896,
                0
            ]
        }
    ],
    "materials" : [
        {
            "doubleSided" : true,
            "emissiveFactor" : [
                0,
                0,
                0
            ],
            "name" : "BaseMaterial.008",
            "pbrMetallicRoughness" : {
                "baseColorFactor" : [
                    0.4479791224002838,
                    0.4479791224002838,
                    0.4479791224002838,
                    1
                ],
                "metallicFactor" : 0,
                "roughnessFactor" : 0.5
            }
        },
        {
            "doubleSided" : true,
            "emissiveFactor" : [
                0,
                0,
                0
            ],
            "name" : "GlassMaterial.008",
            "pbrMetallicRoughness" : {
                "baseColorFactor" : [
                    0.800000011920929,
                    0.800000011920929,
                    0.800000011920929,
                    1
                ],
                "metallicFactor" : 1,
                "roughnessFactor" : 0
            }
        }
    ],
    "meshes" : [
        {
            "name" : "Cube.048",
            "primitives" : [
                {
                    "attributes" : {
                        "POSITION" : 0,
                        "NORMAL" : 1,
                        "TEXCOORD_0" : 2
                    },
                    "indices" : 3,
                    "material" : 0
                },
                {
                    "attributes" : {
                        "POSITION" : 4,
                        "NORMAL" : 5,
                        "TEXCOORD_0" : 6
                    },
                    "indices" : 7,
                    "material" : 1
                }
            ]
        }
    ],
    "accessors" : [
        {
            "bufferView" : 0,
            "componentType" : 5126,
            "count" : 311,
            "max" : [
                1.997307538986206,
                1.0668095350265503,
                0.9999999403953552
            ],
            "min" : [
                -0.4963274598121643,
                -1.317751407623291,
                -1
            ],
            "type" : "VEC3"
        },
        {
            "bufferView" : 1,
            "componentType" : 5126,
            "count" : 311,
            "type" : "VEC3"
        },
        {
            "bufferView" : 2,
            "componentType" : 5126,
            "count" : 311,
            "type" : "VEC2"
        },
        {
            "bufferView" : 3,
            "componentType" : 5123,
            "count" : 384,
            "type" : "SCALAR"
        },
        {
            "bufferView" : 4,
            "componentType" : 5126,
            "count" : 20,
            "max" : [
                1.9563838243484497,
                1.0139012336730957,
                0.8225805759429932
            ],
            "min" : [
                -0.44066113233566284,
                -0.21183252334594727,
                -1
            ],
            "type" : "VEC3"
        },
        {
            "bufferView" : 5,
            "componentType" : 5126,
            "count" : 20,
            "type" : "VEC3"
        },
        {
            "bufferView" : 6,
            "componentType" : 5126,
            "count" : 20,
            "type" : "VEC2"
        },
        {
            "bufferView" : 7,
            "componentType" : 5123,
            "count" : 24,
            "type" : "SCALAR"
        }
    ],
    "bufferViews" : [
        {
            "buffer" : 0,
            "byteLength" : 3732,
            "byteOffset" : 0
        },
        {
            "buffer" : 0,
            "byteLength" : 3732,
            "byteOffset" : 3732
        },
        {
            "buffer" : 0,
            "byteLength" : 2488,
            "byteOffset" : 7464
        },
        {
            "buffer" : 0,
            "byteLength" : 768,
            "byteOffset" : 9952
        },
        {
            "buffer" : 0,
            "byteLength" : 240,
            "byteOffset" : 10720
        },
        {
            "buffer" : 0,
            "byteLength" : 240,
            "byteOffset" : 10960
        },
        {
            "buffer" : 0,
            "byteLength" : 160,
            "byteOffset" : 11200
        },
        {
            "buffer" : 0,
            "byteLength" : 48,
            "byteOffset" : 11360
        }
    ],
    "buffers" : [
        {
            "byteLength" : 11408,
            "uri" : "corner.bin"
        }
    ]
}
