{
    "asset" : {
        "generator" : "Khronos glTF Blender I/O v1.2.75",
        "version" : "2.0"
    },
    "scene" : 0,
    "scenes" : [
        {
            "name" : "Scene",
            "nodes" : [
                0
            ]
        }
    ],
    "nodes" : [
        {
            "mesh" : 0,
            "name" : "CornerBuilding",
            "translation" : [
                0,
                1,
                0
            ]
        }
    ],
    "materials" : [
        {
            "doubleSided" : true,
            "emissiveFactor" : [
                0,
                0,
                0
            ],
            "name" : "BaseMaterial",
            "pbrMetallicRoughness" : {
                "baseColorFactor" : [
                    0.4479791224002838,
                    0.4479791224002838,
                    0.4479791224002838,
                    1
                ],
                "metallicFactor" : 0,
                "roughnessFactor" : 0.5
            }
        },
        {
            "doubleSided" : true,
            "emissiveFactor" : [
                0,
                0,
                0
            ],
            "name" : "GlassMaterial",
            "pbrMetallicRoughness" : {
                "baseColorFactor" : [
                    0.800000011920929,
                    0.800000011920929,
                    0.800000011920929,
                    1
                ],
                "metallicFactor" : 1,
                "roughnessFactor" : 0
            }
        }
    ],
    "meshes" : [
        {
            "name" : "Cube.001",
            "primitives" : [
                {
                    "attributes" : {
                        "POSITION" : 0,
                        "NORMAL" : 1,
                        "TEXCOORD_0" : 2
                    },
                    "indices" : 3,
                    "material" : 0
                },
                {
                    "attributes" : {
                        "POSITION" : 4,
                        "NORMAL" : 5,
                        "TEXCOORD_0" : 6
                    },
                    "indices" : 7,
                    "material" : 1
                }
            ]
        }
    ],
    "accessors" : [
        {
            "bufferView" : 0,
            "componentType" : 5126,
            "count" : 230,
            "max" : [
                1.997307538986206,
                1,
                1.0668095350265503
            ],
            "min" : [
                -0.4963274598121643,
                -0.9999999403953552,
                -1.317751407623291
            ],
            "type" : "VEC3"
        },
        {
            "bufferView" : 1,
            "componentType" : 5126,
            "count" : 230,
            "type" : "VEC3"
        },
        {
            "bufferView" : 2,
            "componentType" : 5126,
            "count" : 230,
            "type" : "VEC2"
        },
        {
            "bufferView" : 3,
            "componentType" : 5123,
            "count" : 450,
            "type" : "SCALAR"
        },
        {
            "bufferView" : 4,
            "componentType" : 5126,
            "count" : 16,
            "max" : [
                1.9563838243484497,
                1,
                1.0139012336730957
            ],
            "min" : [
                -0.44066113233566284,
                -0.8225805759429932,
                -0.21183252334594727
            ],
            "type" : "VEC3"
        },
        {
            "bufferView" : 5,
            "componentType" : 5126,
            "count" : 16,
            "type" : "VEC3"
        },
        {
            "bufferView" : 6,
            "componentType" : 5126,
            "count" : 16,
            "type" : "VEC2"
        },
        {
            "bufferView" : 7,
            "componentType" : 5123,
            "count" : 24,
            "type" : "SCALAR"
        }
    ],
    "bufferViews" : [
        {
            "buffer" : 0,
            "byteLength" : 2760,
            "byteOffset" : 0
        },
        {
            "buffer" : 0,
            "byteLength" : 2760,
            "byteOffset" : 2760
        },
        {
            "buffer" : 0,
            "byteLength" : 1840,
            "byteOffset" : 5520
        },
        {
            "buffer" : 0,
            "byteLength" : 900,
            "byteOffset" : 7360
        },
        {
            "buffer" : 0,
            "byteLength" : 192,
            "byteOffset" : 8260
        },
        {
            "buffer" : 0,
            "byteLength" : 192,
            "byteOffset" : 8452
        },
        {
            "buffer" : 0,
            "byteLength" : 128,
            "byteOffset" : 8644
        },
        {
            "buffer" : 0,
            "byteLength" : 48,
            "byteOffset" : 8772
        }
    ],
    "buffers" : [
        {
            "byteLength" : 8820,
            "uri" : "corner.bin"
        }
    ]
}
